<svg id="visual" viewBox="0 0 1920 1080" width="1920" height="1080" xmlns="http://www.w3.org/2000/svg" xmlns:xlink="http://www.w3.org/1999/xlink" version="1.1"><rect x="0" y="0" width="1920" height="1080" fill="#001220"></rect><defs><linearGradient id="grad1_0" x1="43.8%" y1="0%" x2="100%" y2="100%"><stop offset="14.444444444444446%" stop-color="#fbae3c" stop-opacity="1"></stop><stop offset="85.55555555555554%" stop-color="#fbae3c" stop-opacity="1"></stop></linearGradient></defs><defs><linearGradient id="grad1_1" x1="43.8%" y1="0%" x2="100%" y2="100%"><stop offset="14.444444444444446%" stop-color="#fbae3c" stop-opacity="1"></stop><stop offset="85.55555555555554%" stop-color="#96446e" stop-opacity="1"></stop></linearGradient></defs><defs><linearGradient id="grad1_2" x1="43.8%" y1="0%" x2="100%" y2="100%"><stop offset="14.444444444444446%" stop-color="#001220" stop-opacity="1"></stop><stop offset="85.55555555555554%" stop-color="#96446e" stop-opacity="1"></stop></linearGradient></defs><defs><linearGradient id="grad2_0" x1="0%" y1="0%" x2="56.3%" y2="100%"><stop offset="14.444444444444446%" stop-color="#fbae3c" stop-opacity="1"></stop><stop offset="85.55555555555554%" stop-color="#fbae3c" stop-opacity="1"></stop></linearGradient></defs><defs><linearGradient id="grad2_1" x1="0%" y1="0%" x2="56.3%" y2="100%"><stop offset="14.444444444444446%" stop-color="#96446e" stop-opacity="1"></stop><stop offset="85.55555555555554%" stop-color="#fbae3c" stop-opacity="1"></stop></linearGradient></defs><defs><linearGradient id="grad2_2" x1="0%" y1="0%" x2="56.3%" y2="100%"><stop offset="14.444444444444446%" stop-color="#96446e" stop-opacity="1"></stop><stop offset="85.55555555555554%" stop-color="#001220" stop-opacity="1"></stop></linearGradient></defs><g transform="translate(1920, 0)"><path d="M0 972C-103.8 902.1 -207.5 832.2 -329.5 795.5C-451.5 758.7 -591.7 755.2 -687.3 687.3C-782.9 619.4 -834 487.3 -874 362C-914 236.8 -943 118.4 -972 0L0 0Z" fill="#3d3056"></path><path d="M0 648C-69.2 601.4 -138.3 554.8 -219.7 530.3C-301 505.8 -394.5 503.4 -458.2 458.2C-522 413 -556 324.9 -582.7 241.3C-609.3 157.8 -628.7 78.9 -648 0L0 0Z" fill="#e1685e"></path><path d="M0 324C-34.6 300.7 -69.2 277.4 -109.8 265.2C-150.5 252.9 -197.2 251.7 -229.1 229.1C-261 206.5 -278 162.4 -291.3 120.7C-304.7 78.9 -314.3 39.5 -324 0L0 0Z" fill="#fbae3c"></path></g><g transform="translate(0, 1080)"><path d="M0 -972C126.3 -951.4 252.6 -930.8 365.5 -882.3C478.3 -833.8 577.7 -757.4 670.3 -670.3C763 -583.3 848.9 -485.5 898 -372C947.2 -258.5 959.6 -129.2 972 0L0 0Z" fill="#3d3056"></path><path d="M0 -648C84.2 -634.3 168.4 -620.5 243.6 -588.2C318.9 -555.9 385.1 -504.9 446.9 -446.9C508.6 -388.8 565.9 -323.6 598.7 -248C631.4 -172.3 639.7 -86.2 648 0L0 0Z" fill="#e1685e"></path><path d="M0 -324C42.1 -317.1 84.2 -310.3 121.8 -294.1C159.4 -277.9 192.6 -252.5 223.4 -223.4C254.3 -194.4 283 -161.8 299.3 -124C315.7 -86.2 319.9 -43.1 324 0L0 0Z" fill="#fbae3c"></path></g></svg>